<svg xmlns="http://www.w3.org/2000/svg" viewBox="0 0 768 768" role="img" aria-label="Logo Rostor">
  <defs>
    <linearGradient id="navy" x1="0" x2="1" y1="0" y2="1">
      <stop offset="0" stop-color="#14263e"/>
      <stop offset="1" stop-color="#07172a"/>
    </linearGradient>
    <linearGradient id="gold" x1="0" x2="1" y1="0" y2="1">
      <stop offset="0" stop-color="#f2c978"/>
      <stop offset="1" stop-color="#b88b38"/>
    </linearGradient>
    <filter id="soft" x="-10%" y="-10%" width="120%" height="120%">
      <feDropShadow dx="0" dy="2" stdDeviation="2" flood-color="#000" flood-opacity="0.16"/>
    </filter>
  </defs>
  <rect width="768" height="768" fill="#ffffff"/>
  <g filter="url(#soft)">
    <rect x="416" y="82" width="178" height="178" rx="18" fill="url(#navy)"/>
    <rect x="358" y="318" width="234" height="160" rx="18" fill="url(#gold)"/>
    <rect x="416" y="542" width="178" height="178" rx="18" fill="url(#navy)"/>
    <circle cx="264" cy="385" r="22" fill="url(#navy)"/>
    <path d="M210 455c18-38 38-62 58-69 18-7 45 7 68 11 18 3 38-18 61-47l20 17c-22 32-45 65-74 74-25 8-55-5-72-4-14 1-29 28-45 61l-47 95c-8 15-19 26-35 36l-41 26c-14 9-32 4-39-10-7-13-3-29 10-39l39-31c13-10 22-22 29-37l68-83z" fill="url(#navy)"/>
    <path d="M260 458l71 69c13 12 16 31 8 47l-45 87 34 12c16 6 25 22 21 38-5 17-22 27-39 22l-70-21 61-136-93-86 52-32z" fill="url(#navy)"/>
    <path d="M76 678c64-5 138-8 215-8 37 0 73 1 107 3 8 1 8 8 0 9-86 7-210 8-322 4-9 0-9-7 0-8z" fill="#07172a" opacity="0.9"/>
  </g>
</svg>
